<mxfile host="app.diagrams.net" agent="Mozilla/5.0 (Macintosh; Intel Mac OS X 10_15_7) AppleWebKit/537.36 (KHTML, like Gecko) Chrome/131.0.0.0 Safari/537.36" version="26.0.6">
  <diagram name="Seite-1" id="2g0gkd41KDo9kujFECaF">
    <mxGraphModel dx="1045" dy="761" grid="1" gridSize="10" guides="1" tooltips="1" connect="1" arrows="1" fold="1" page="1" pageScale="1" pageWidth="827" pageHeight="1169" math="0" shadow="0">
      <root>
        <mxCell id="0" />
        <mxCell id="1" parent="0" />
        <mxCell id="BE5raSAz34MsC6Gy-gB5-1" value="«device» artpc17" style="verticalAlign=top;align=center;shape=cube;size=10;direction=south;html=1;boundedLbl=1;spacingLeft=5;whiteSpace=wrap;" vertex="1" parent="1">
          <mxGeometry x="38" y="130" width="190" height="210" as="geometry" />
        </mxCell>
        <mxCell id="BE5raSAz34MsC6Gy-gB5-2" value="«component»&lt;br&gt;&lt;b&gt;Terraform Modul&lt;br&gt;tf-module-elk-stack&lt;/b&gt;" style="html=1;dropTarget=0;whiteSpace=wrap;" vertex="1" parent="1">
          <mxGeometry x="48" y="250" width="160" height="80" as="geometry" />
        </mxCell>
        <mxCell id="BE5raSAz34MsC6Gy-gB5-3" value="" style="shape=module;jettyWidth=8;jettyHeight=4;" vertex="1" parent="BE5raSAz34MsC6Gy-gB5-2">
          <mxGeometry x="1" width="20" height="20" relative="1" as="geometry">
            <mxPoint x="-27" y="7" as="offset" />
          </mxGeometry>
        </mxCell>
        <mxCell id="BE5raSAz34MsC6Gy-gB5-4" value="" style="group" vertex="1" connectable="0" parent="1">
          <mxGeometry x="48" y="170" width="160" height="70" as="geometry" />
        </mxCell>
        <mxCell id="BE5raSAz34MsC6Gy-gB5-5" value="«artefact»&lt;br&gt;&lt;b&gt;Terraform&lt;/b&gt;" style="html=1;dropTarget=0;whiteSpace=wrap;" vertex="1" parent="BE5raSAz34MsC6Gy-gB5-4">
          <mxGeometry width="160" height="70" as="geometry" />
        </mxCell>
        <mxCell id="BE5raSAz34MsC6Gy-gB5-6" value="" style="shape=note2;boundedLbl=1;whiteSpace=wrap;html=1;size=6;verticalAlign=top;align=left;spacingLeft=5;" vertex="1" parent="BE5raSAz34MsC6Gy-gB5-4">
          <mxGeometry x="129.23076923076923" y="8.75" width="18.46153846153846" height="17.5" as="geometry" />
        </mxCell>
        <mxCell id="BE5raSAz34MsC6Gy-gB5-7" style="edgeStyle=orthogonalEdgeStyle;rounded=0;orthogonalLoop=1;jettySize=auto;html=1;endArrow=none;endFill=0;entryX=0.591;entryY=0.998;entryDx=0;entryDy=0;entryPerimeter=0;" edge="1" parent="1" target="BE5raSAz34MsC6Gy-gB5-10">
          <mxGeometry relative="1" as="geometry">
            <mxPoint x="542" y="275" as="targetPoint" />
            <Array as="points">
              <mxPoint x="370" y="242" />
            </Array>
            <mxPoint x="228" y="242" as="sourcePoint" />
          </mxGeometry>
        </mxCell>
        <mxCell id="BE5raSAz34MsC6Gy-gB5-8" value="&lt;span style=&quot;font-size: 12px; text-wrap: wrap; background-color: rgb(251, 251, 251);&quot;&gt;&lt;span style=&quot;text-wrap-style: initial; background-color: rgb(251, 251, 251);&quot;&gt;«&lt;/span&gt;&lt;span style=&quot;font-size: 11px; text-wrap-mode: nowrap; background-color: rgb(255, 255, 255);&quot;&gt;protocol&lt;/span&gt;&lt;span style=&quot;text-wrap-style: initial; background-color: rgb(251, 251, 251);&quot;&gt;»&lt;/span&gt;&lt;br style=&quot;font-size: 11px; text-wrap-mode: nowrap;&quot;&gt;&lt;span style=&quot;font-size: 11px; text-wrap-mode: nowrap; background-color: rgb(255, 255, 255);&quot;&gt;tcp: 6443&lt;/span&gt;&lt;/span&gt;" style="edgeLabel;html=1;align=center;verticalAlign=middle;resizable=0;points=[];" vertex="1" connectable="0" parent="BE5raSAz34MsC6Gy-gB5-7">
          <mxGeometry x="-0.2613" y="2" relative="1" as="geometry">
            <mxPoint x="19" y="-20" as="offset" />
          </mxGeometry>
        </mxCell>
        <mxCell id="BE5raSAz34MsC6Gy-gB5-9" value="Verteilungsdiagramm: Terraform Logging" style="shape=umlFrame;whiteSpace=wrap;html=1;pointerEvents=0;recursiveResize=0;container=0;collapsible=0;width=270;height=30;" vertex="1" parent="1">
          <mxGeometry x="17" y="90" width="793" height="260" as="geometry" />
        </mxCell>
        <mxCell id="BE5raSAz34MsC6Gy-gB5-10" value="«cluster» Kubernetes Cluster" style="verticalAlign=top;align=center;shape=cube;size=10;direction=south;html=1;boundedLbl=1;spacingLeft=5;whiteSpace=wrap;" vertex="1" parent="1">
          <mxGeometry x="369" y="110" width="418" height="220" as="geometry" />
        </mxCell>
        <mxCell id="BE5raSAz34MsC6Gy-gB5-11" value="«Namespace»&lt;b&gt;&lt;br&gt;prometheus-stack&lt;/b&gt;" style="html=1;dropTarget=0;whiteSpace=wrap;" vertex="1" parent="1">
          <mxGeometry x="387" y="150" width="160" height="60" as="geometry" />
        </mxCell>
        <mxCell id="BE5raSAz34MsC6Gy-gB5-12" value="" style="shape=module;jettyWidth=8;jettyHeight=4;" vertex="1" parent="BE5raSAz34MsC6Gy-gB5-11">
          <mxGeometry x="1" width="20" height="20" relative="1" as="geometry">
            <mxPoint x="-27" y="7" as="offset" />
          </mxGeometry>
        </mxCell>
        <mxCell id="BE5raSAz34MsC6Gy-gB5-13" value="«Helm Chart»&lt;div&gt;&lt;b&gt;prometheus-stack&lt;/b&gt;&lt;/div&gt;" style="html=1;dropTarget=0;whiteSpace=wrap;" vertex="1" parent="1">
          <mxGeometry x="601" y="150" width="160" height="60" as="geometry" />
        </mxCell>
        <mxCell id="BE5raSAz34MsC6Gy-gB5-15" style="rounded=0;orthogonalLoop=1;jettySize=auto;html=1;dashed=1;endArrow=open;endFill=0;strokeWidth=1;endSize=9;startSize=6;entryX=1;entryY=0.5;entryDx=0;entryDy=0;exitX=0;exitY=0.5;exitDx=0;exitDy=0;" edge="1" parent="1" source="BE5raSAz34MsC6Gy-gB5-13" target="BE5raSAz34MsC6Gy-gB5-11">
          <mxGeometry relative="1" as="geometry">
            <mxPoint x="547" y="252" as="sourcePoint" />
            <mxPoint x="557" y="290" as="targetPoint" />
          </mxGeometry>
        </mxCell>
        <mxCell id="BE5raSAz34MsC6Gy-gB5-16" value="" style="shape=note2;boundedLbl=1;whiteSpace=wrap;html=1;size=6;verticalAlign=top;align=left;spacingLeft=5;" vertex="1" parent="1">
          <mxGeometry x="741" y="153" width="16" height="20" as="geometry" />
        </mxCell>
        <mxCell id="BE5raSAz34MsC6Gy-gB5-37" value="" style="group" vertex="1" connectable="0" parent="1">
          <mxGeometry x="601" y="255" width="160" height="60" as="geometry" />
        </mxCell>
        <mxCell id="BE5raSAz34MsC6Gy-gB5-38" value="«YAML»&lt;div&gt;&lt;b&gt;files/values.yaml&lt;/b&gt;&lt;/div&gt;" style="html=1;dropTarget=0;whiteSpace=wrap;" vertex="1" parent="BE5raSAz34MsC6Gy-gB5-37">
          <mxGeometry width="160" height="60" as="geometry" />
        </mxCell>
        <mxCell id="BE5raSAz34MsC6Gy-gB5-39" value="" style="shape=note2;boundedLbl=1;whiteSpace=wrap;html=1;size=6;verticalAlign=top;align=left;spacingLeft=5;" vertex="1" parent="BE5raSAz34MsC6Gy-gB5-37">
          <mxGeometry x="141" y="3" width="16" height="20" as="geometry" />
        </mxCell>
        <mxCell id="BE5raSAz34MsC6Gy-gB5-44" style="rounded=0;orthogonalLoop=1;jettySize=auto;html=1;exitX=0.5;exitY=1;exitDx=0;exitDy=0;dashed=1;endArrow=open;endFill=0;strokeWidth=1;endSize=9;startSize=6;entryX=0.5;entryY=0;entryDx=0;entryDy=0;" edge="1" parent="1" source="BE5raSAz34MsC6Gy-gB5-13" target="BE5raSAz34MsC6Gy-gB5-38">
          <mxGeometry relative="1" as="geometry">
            <mxPoint x="441.76" y="320.1199999999999" as="sourcePoint" />
            <mxPoint x="441" y="210" as="targetPoint" />
          </mxGeometry>
        </mxCell>
      </root>
    </mxGraphModel>
  </diagram>
</mxfile>
